<svg width="28" height="23" viewBox="0 0 28 23" fill="none" xmlns="http://www.w3.org/2000/svg">
<path fill-rule="evenodd" clip-rule="evenodd" d="M1.78093 12.6458H22.0169L15.1433 19.443C14.5365 20.0621 14.5493 21.0517 15.1625 21.6628C15.7806 22.2693 16.7813 22.2819 17.4073 21.6818L27.0141 12.1818C27.3151 11.8858 27.4832 11.4836 27.4832 11.0688V11.0624C27.4832 10.8582 27.44 10.6476 27.3583 10.456C27.2766 10.2644 27.1582 10.0918 27.0141 9.94302L17.4073 0.443015C16.7749 -0.157068 15.7806 -0.144401 15.1625 0.462015C14.5429 1.07318 14.5365 2.06277 15.1433 2.68185L22.0169 9.4791H1.78093C0.898714 9.4791 0.17981 10.19 0.17981 11.0624C0.17981 11.9348 0.898714 12.6458 1.78093 12.6458Z" fill="currentColor"/>
</svg>
