<svg width="100" height="100" viewBox="0 0 100 100" fill="none" xmlns="http://www.w3.org/2000/svg">
<circle cx="50" cy="50" r="50" fill="#E8F1FF"/>
<path fill-rule="evenodd" clip-rule="evenodd" d="M15 85.25L19 89C21.5 91 21.5 91.5 25 93C25 93 39.625 100 50.5 100C60.0417 100 78 92 78 92C81 90.5 80 90.5 82 88.5L85 85.25C85 73.6125 61.69 67.75 50 67.75C38.31 67.75 15 73.6125 15 85.25ZM50 59C59.6731 59 67.5 51.1731 67.5 41.5C67.5 31.8269 59.6731 24 50 24C40.3269 24 32.5 31.8269 32.5 41.5C32.5 51.1731 40.3269 59 50 59Z" fill="#F5F9FF"/>
</svg>
