<svg width="27" height="20" viewBox="0 0 27 20" fill="none" xmlns="http://www.w3.org/2000/svg">
<path fill-rule="evenodd" clip-rule="evenodd" d="M26.207 9.99978C26.207 10.7581 25.586 11.3791 24.8277 11.3791H4.69001L10.9305 17.6548C11.4829 18.2072 11.4829 19.0693 10.9305 19.62C10.6895 19.8628 10.3446 20 9.96461 20C9.61978 20 9.24149 19.8628 9.00045 19.5865L0.413026 10.9657C-0.137675 10.4132 -0.137675 9.55115 0.413026 9.0339L9.00045 0.413026C9.55115 -0.137675 10.4132 -0.137675 10.9657 0.413026C11.5164 0.965452 11.5164 1.82754 10.9657 2.37824L4.69001 8.62044H24.8277C25.586 8.62044 26.207 9.24149 26.207 9.99978" fill="currentColor"/>
</svg>
