<svg width="214" height="192" viewBox="0 0 214 192" fill="none" xmlns="http://www.w3.org/2000/svg">
<path fill-rule="evenodd" clip-rule="evenodd" d="M53.4892 135.954C53.4892 134.993 54.2726 134.209 55.2338 134.209H60.4675V153.4H55.2338C54.2726 153.4 53.4892 152.616 53.4892 151.655V135.954ZM53.4892 116.293C53.4683 104.524 57.9327 93.198 65.9804 84.6112L68.421 87.0711C61.0467 95.0176 56.9574 105.464 56.9784 116.307V130.72H55.2338C54.6407 130.727 54.0475 130.828 53.4892 131.034V116.293ZM138.715 84.6252C146.749 93.212 151.213 104.538 151.185 116.293V131.034C150.627 130.828 150.034 130.727 149.441 130.72H147.696V116.293C147.717 105.459 143.628 95.0106 136.253 87.0711L138.715 84.6252ZM151.185 151.655C151.185 152.616 150.402 153.4 149.441 153.4H144.207V134.209H149.441C150.402 134.209 151.185 134.993 151.185 135.954V151.655ZM55.2338 156.889H60.4675C60.4745 159.778 62.8122 162.115 65.7012 162.122H72.6795C75.5685 162.115 77.9062 159.778 77.9132 156.889V130.72C77.9062 127.831 75.5685 125.493 72.6795 125.486H65.7012C62.8122 125.493 60.4745 127.831 60.4675 130.72V116.307C60.4605 106.392 64.2026 96.8441 70.9349 89.5658C72.8295 91.5564 75.9506 91.7256 78.0493 89.9479C84.9124 84.3251 93.5323 81.2861 102.405 81.3681C111.231 81.3 119.804 84.3321 126.625 89.9339C128.724 91.7203 131.852 91.5633 133.76 89.5658C140.479 96.8441 144.207 106.385 144.207 116.293V130.72C144.2 127.831 141.862 125.493 138.973 125.486H131.995C129.106 125.493 126.768 127.831 126.761 130.72V156.889C126.768 159.778 129.106 162.115 131.995 162.122H138.973C139.566 162.115 140.159 162.014 140.718 161.808V162.122C140.711 165.011 138.373 167.349 135.484 167.356H109.315C106.426 167.349 104.089 165.011 104.082 162.122V141.535C110.392 141.202 116.444 138.939 121.424 135.047C123.169 133.569 124.165 131.388 124.144 129.098V118.107C124.144 117.814 123.994 117.54 123.748 117.378C123.504 117.221 123.19 117.193 122.925 117.308L107.468 124.157C104.197 125.602 100.477 125.602 97.2064 124.157L81.7495 117.308C81.4843 117.193 81.1703 117.214 80.9261 117.378C80.6801 117.54 80.5301 117.814 80.5301 118.107V129.098C80.5091 131.381 81.5053 133.562 83.2498 135.047C88.2306 138.939 94.2825 141.202 100.593 141.535V162.122C100.593 166.941 104.497 170.845 109.315 170.845H135.484C140.302 170.845 144.207 166.941 144.207 162.122V156.889H149.441C152.33 156.882 154.667 154.544 154.674 151.655V116.293C154.709 103.018 149.42 90.2811 140.002 80.9319C129.978 70.9966 116.383 65.496 102.269 65.667C88.2166 65.5309 74.6962 71.0158 64.7068 80.897C55.2687 90.2549 49.9722 103.004 50.0001 116.293V151.655C50.0071 154.544 52.3448 156.882 55.2338 156.889Z" fill="black"/>
<path fill-rule="evenodd" clip-rule="evenodd" d="M106.051 120.968C110.671 118.924 126.217 112.048 130.55 110.119C132.52 109.241 133.793 107.284 133.793 105.124C133.793 102.971 132.52 101.016 130.55 100.137L106.051 89.2661C103.687 88.2246 100.989 88.2246 98.623 89.2661L74.124 100.137C72.1544 101.016 70.8809 102.971 70.8809 105.124C70.8809 107.284 72.1544 109.241 74.124 110.119C78.3703 112.007 94.0976 118.966 98.623 120.968C100.989 122.019 103.687 122.019 106.051 120.968Z" fill="black"/>
<path d="M37.5 6.5L61.5 38.5" stroke="#0F0F0F" stroke-width="2.4" stroke-linecap="round" stroke-linejoin="round"/>
<path d="M62.5 15.5L86.5 47.5" stroke="#167F71" stroke-width="2.4" stroke-linecap="round" stroke-linejoin="round"/>
<path fill-rule="evenodd" clip-rule="evenodd" d="M175 13.5L169.71 16.2812L170.72 10.3906L166.44 6.21885L172.355 5.35942L175 0L177.645 5.35942L183.56 6.21885L179.28 10.3906L180.29 16.2812L175 13.5Z" fill="#FCC202"/>
<path fill-rule="evenodd" clip-rule="evenodd" d="M207 71L214 85H200L207 71Z" fill="#167F71"/>
<circle cx="164" cy="57" r="6" fill="#472D2D"/>
<path fill-rule="evenodd" clip-rule="evenodd" d="M9 134.5L3.70993 137.281L4.72025 131.391L0.440491 127.219L6.35497 126.359L9 121L11.645 126.359L17.5595 127.219L13.2798 131.391L14.2901 137.281L9 134.5Z" fill="#FF001E"/>
<path fill-rule="evenodd" clip-rule="evenodd" d="M39 178L46 192H32L39 178Z" fill="#332DA1"/>
<circle cx="37" cy="147" r="4" fill="#167F71"/>
<circle cx="20" cy="47" r="6" fill="#FF6B00"/>
</svg>
