<svg width="19" height="15" viewBox="0 0 19 15" fill="none" xmlns="http://www.w3.org/2000/svg">
<path fill-rule="evenodd" clip-rule="evenodd" d="M18.7834 2.37773L18.0312 1.6236L11.0558 8.599C10.1844 9.47004 8.71855 9.47004 7.84474 8.599L0.871714 1.66402L0.117188 2.41617L5.30971 7.60829L0.117188 12.8004L0.871714 13.5526L6.06146 8.36044L7.09299 9.39157C7.72784 10.0264 8.55845 10.3823 9.42988 10.3823C10.3037 10.3823 11.1343 10.0264 11.7695 9.39157L12.7983 8.36044L17.9908 13.5526L18.7426 12.8004L13.5528 7.60829L18.7834 2.37773Z" fill="currentColor"/>
<path fill-rule="evenodd" clip-rule="evenodd" d="M1.62358 1.46578C1.30615 1.46578 1.06997 1.70435 1.06997 2.01979V13.1966C1.06997 13.512 1.30615 13.7506 1.62358 13.7506H17.2768C17.5947 13.7506 17.8328 13.512 17.8328 13.1966V2.01979C17.8328 1.70435 17.5947 1.46578 17.2768 1.46578H1.62358ZM17.3176 14.899H1.6644C0.752149 14.899 0 14.1469 0 13.235V2.06021C0 1.14836 0.752149 0.39621 1.6644 0.39621H17.3176C18.2291 0.39621 18.9816 1.14836 18.9816 2.06021V13.235C18.9816 14.1469 18.2291 14.899 17.3176 14.899Z" fill="currentColor"/>
</svg>
