<svg width="59" height="60" viewBox="0 0 59 60" fill="none" xmlns="http://www.w3.org/2000/svg">
<g filter="url(#filter0_d_168_783)">
<circle cx="24" cy="24" r="24" fill="white"/>
</g>
<mask id="mask0_168_783" style="mask-type:luminance" maskUnits="userSpaceOnUse" x="15" y="20" width="5" height="10">
<path fill-rule="evenodd" clip-rule="evenodd" d="M15 20.4012H19.4324V29.7389H15V20.4012Z" fill="white"/>
</mask>
<g mask="url(#mask0_168_783)">
<path fill-rule="evenodd" clip-rule="evenodd" d="M19.4324 27.0862L18.7362 29.6852L16.1917 29.7389C15.4314 28.3286 15 26.7148 15 25C15 23.3418 15.4033 21.778 16.1182 20.4012H16.1186L18.3839 20.8163L19.3764 23.0681C19.1687 23.6737 19.0555 24.3236 19.0555 25C19.0555 25.7341 19.1886 26.4374 19.4324 27.0862Z" fill="#FBBB00"/>
</g>
<mask id="mask1_168_783" style="mask-type:luminance" maskUnits="userSpaceOnUse" x="25" y="23" width="10" height="10">
<path fill-rule="evenodd" clip-rule="evenodd" d="M25.22 23.1319H35.0001V32.7983H25.22V23.1319Z" fill="white"/>
</mask>
<g mask="url(#mask1_168_783)">
<path fill-rule="evenodd" clip-rule="evenodd" d="M34.8254 23.1319C34.9402 23.7367 35.0001 24.3616 35.0001 25C35.0001 25.7159 34.9249 26.4143 34.7814 27.0878C34.2947 29.3802 33.0227 31.3818 31.2606 32.7983L31.26 32.7978L28.4068 32.6523L28.0029 30.1314C29.1721 29.4457 30.0858 28.3725 30.5672 27.0878H25.22V23.1319H34.8254Z" fill="#518EF8"/>
</g>
<path fill-rule="evenodd" clip-rule="evenodd" d="M31.2599 32.7979L31.2603 32.7983C29.5466 34.1759 27.3696 35 24.9999 35C21.1917 35 17.8806 32.8714 16.1917 29.7391L19.4323 27.0863C20.2769 29.34 22.4509 30.9445 24.9999 30.9445C26.0955 30.9445 27.122 30.6484 28.0027 30.1314L31.2599 32.7979Z" fill="#28B446"/>
<path fill-rule="evenodd" clip-rule="evenodd" d="M31.3829 17.3023L28.1434 19.9544C27.2319 19.3846 26.1543 19.0555 25 19.0555C22.3934 19.0555 20.1785 20.7335 19.3764 23.0681L16.1186 20.4012H16.1182C17.7824 17.1922 21.1351 15 25 15C27.4263 15 29.651 15.8643 31.3829 17.3023Z" fill="#F14336"/>
<defs>
<filter id="filter0_d_168_783" x="-9" y="-8" width="68" height="68" filterUnits="userSpaceOnUse" color-interpolation-filters="sRGB">
<feFlood flood-opacity="0" result="BackgroundImageFix"/>
<feColorMatrix in="SourceAlpha" type="matrix" values="0 0 0 0 0 0 0 0 0 0 0 0 0 0 0 0 0 0 127 0" result="hardAlpha"/>
<feOffset dx="1" dy="2"/>
<feGaussianBlur stdDeviation="5"/>
<feColorMatrix type="matrix" values="0 0 0 0 0 0 0 0 0 0 0 0 0 0 0 0 0 0 0.1 0"/>
<feBlend mode="normal" in2="BackgroundImageFix" result="effect1_dropShadow_168_783"/>
<feBlend mode="normal" in="SourceGraphic" in2="effect1_dropShadow_168_783" result="shape"/>
</filter>
</defs>
</svg>
