<svg width="17" height="17" viewBox="0 0 17 17" fill="none" xmlns="http://www.w3.org/2000/svg">
<path d="M1.70711 0.292893C1.31658 -0.0976311 0.683417 -0.0976311 0.292893 0.292893C-0.0976311 0.683417 -0.0976311 1.31658 0.292893 1.70711L1.70711 0.292893ZM15.2929 16.7071C15.6834 17.0976 16.3166 17.0976 16.7071 16.7071C17.0976 16.3166 17.0976 15.6834 16.7071 15.2929L15.2929 16.7071ZM10.6761 10.6296C11.0536 10.2265 11.0328 9.59365 10.6296 9.21617C10.2265 8.83869 9.59365 8.8595 9.21617 9.26265L10.6761 10.6296ZM7.94364 10.5318L8.19346 9.56352L8.18896 9.56238L7.94364 10.5318ZM6.46818 9.05636L7.43763 8.81104L7.43647 8.80654L6.46818 9.05636ZM7.73735 7.78383C8.1405 7.40635 8.16131 6.77352 7.78383 6.37038C7.40635 5.96723 6.77352 5.94642 6.37038 6.3239L7.73735 7.78383ZM6.84155 2.23343C6.30346 2.35784 5.96811 2.89491 6.09252 3.433C6.21694 3.97109 6.754 4.30644 7.29209 4.18202L6.84155 2.23343ZM16 8.5L16.8828 8.96974C17.0349 8.68399 17.0392 8.34231 16.8944 8.05279L16 8.5ZM13.7602 10.0334C13.4054 10.4567 13.461 11.0874 13.8843 11.4421C14.3076 11.7969 14.9383 11.7413 15.293 11.318L13.7602 10.0334ZM13.156 13.3467C13.5956 13.0124 13.681 12.385 13.3467 11.9454C13.0124 11.5058 12.385 11.4204 11.9454 11.7547L13.156 13.3467ZM8.5 13.9545V14.9545C8.50543 14.9545 8.51086 14.9545 8.51629 14.9544L8.5 13.9545ZM1 8.5L0.118724 8.0274C-0.0347944 8.31367 -0.0396985 8.65667 0.105573 8.94721L1 8.5ZM5.05647 5.2439C5.49531 4.90858 5.57922 4.281 5.2439 3.84216C4.90858 3.40333 4.281 3.31941 3.84216 3.65473L5.05647 5.2439ZM0.292893 1.70711L15.2929 16.7071L16.7071 15.2929L1.70711 0.292893L0.292893 1.70711ZM9.21617 9.26265C8.95229 9.54448 8.55996 9.65809 8.19346 9.56353L7.69381 11.5001C8.77549 11.7792 9.91726 11.4401 10.6761 10.6296L9.21617 9.26265ZM8.18896 9.56238C7.82021 9.46906 7.53094 9.17979 7.43762 8.81104L5.49874 9.30169C5.77224 10.3825 6.61751 11.2278 7.69831 11.5013L8.18896 9.56238ZM7.43647 8.80654C7.34191 8.44004 7.45552 8.04771 7.73735 7.78383L6.37038 6.3239C5.55993 7.08274 5.22081 8.22451 5.49989 9.30619L7.43647 8.80654ZM7.29209 4.18202C7.68818 4.09044 8.09185 4.04545 8.5 4.04545V2.04545C7.94406 2.04545 7.38909 2.10683 6.84155 2.23343L7.29209 4.18202ZM8.5 4.04545C10.4869 4.04545 12.1158 5.18265 13.3102 6.45667C13.8983 7.08395 14.3523 7.71505 14.6593 8.19025C14.8121 8.42689 14.9268 8.62234 15.0019 8.75589C15.0394 8.82259 15.067 8.87366 15.0843 8.90646C15.093 8.92286 15.0991 8.93467 15.1027 8.94158C15.1045 8.94503 15.1056 8.94726 15.1061 8.94821C15.1063 8.94869 15.1064 8.94884 15.1063 8.94868C15.1063 8.9486 15.1062 8.94844 15.1061 8.94819C15.106 8.94807 15.1059 8.94782 15.1058 8.94776C15.1057 8.9475 15.1056 8.94721 16 8.5C16.8944 8.05279 16.8943 8.05246 16.8941 8.05211C16.894 8.05197 16.8938 8.0516 16.8937 8.05131C16.8934 8.05073 16.8931 8.05008 16.8927 8.04933C16.8919 8.04785 16.891 8.04603 16.8899 8.04388C16.8878 8.03959 16.8849 8.03399 16.8814 8.02713C16.8743 8.01339 16.8645 7.99458 16.8521 7.97102C16.8272 7.92393 16.7914 7.8578 16.7451 7.77536C16.6524 7.61062 16.5168 7.37993 16.3393 7.1052C15.9857 6.55768 15.4596 5.82514 14.7693 5.08879C13.4069 3.63553 11.2859 2.04545 8.5 2.04545V4.04545ZM15.1172 8.03026C14.7392 8.74058 14.2826 9.40993 13.7602 10.0334L15.293 11.318C15.8996 10.5942 16.4358 9.80988 16.8828 8.96974L15.1172 8.03026ZM11.9454 11.7547C10.9478 12.5132 9.73441 12.9343 8.48371 12.9547L8.51629 14.9544C10.1947 14.9271 11.8204 14.3622 13.156 13.3467L11.9454 11.7547ZM8.5 12.9545C6.51314 12.9545 4.88416 11.8173 3.68976 10.5433C3.10169 9.91605 2.64765 9.28495 2.34075 8.80975C2.18792 8.57311 2.07321 8.37766 1.99808 8.24411C1.96056 8.17741 1.93303 8.12634 1.91567 8.09354C1.90699 8.07714 1.90087 8.06533 1.89732 8.05842C1.89554 8.05497 1.89441 8.05274 1.89393 8.05179C1.89369 8.05131 1.89361 8.05116 1.89369 8.05132C1.89373 8.0514 1.89382 8.05156 1.89394 8.05181C1.894 8.05193 1.89412 8.05218 1.89415 8.05224C1.89428 8.0525 1.89443 8.05279 1 8.5C0.105573 8.94721 0.105736 8.94754 0.10591 8.94789C0.105982 8.94803 0.106168 8.9484 0.106312 8.94869C0.106601 8.94926 0.106932 8.94992 0.107306 8.95067C0.108054 8.95215 0.108972 8.95397 0.110059 8.95612C0.112234 8.96041 0.115088 8.96601 0.118619 8.97287C0.12568 8.98661 0.135452 9.00542 0.147916 9.02898C0.172837 9.07607 0.208561 9.1422 0.254934 9.22464C0.347603 9.38938 0.483245 9.62007 0.660671 9.8948C1.01428 10.4423 1.54036 11.1749 2.23069 11.9112C3.59312 13.3645 5.71413 14.9545 8.5 14.9545V12.9545ZM1.88128 8.9726C2.66065 7.51929 3.74463 6.2463 5.05647 5.2439L3.84216 3.65473C2.304 4.83007 1.03299 6.32253 0.118724 8.0274L1.88128 8.9726Z" fill="currentColor"/>
</svg>
