<svg width="11" height="19" viewBox="0 0 11 19" fill="none" xmlns="http://www.w3.org/2000/svg">
<path fill-rule="evenodd" clip-rule="evenodd" d="M10.7221 16.4105C10.5261 16.4105 10.3431 16.4765 10.1671 16.5625L5.72211 18.8795C5.18711 19.1485 4.51111 18.9335 4.21811 18.4185C4.10511 18.2075 4.06211 17.9655 4.10111 17.7265L4.99511 12.8015C5.05411 12.4415 4.93311 12.0825 4.67111 11.8285L1.04211 8.32052C0.605105 7.89152 0.605105 7.19152 1.04211 6.75852C1.21411 6.59052 1.43711 6.48052 1.67511 6.44552L6.69111 5.70752C7.07311 5.65252 7.35111 5.43852 7.52611 5.10252L9.70611 0.570517C9.8701 0.203517 10.4291 -0.0504835 10.7301 0.00851655C10.7221 0.309517 10.7221 16.2115 10.7221 16.4105Z" fill="currentColor"/>
</svg>
