<svg width="15" height="20" viewBox="0 0 15 20" fill="none" xmlns="http://www.w3.org/2000/svg">
<path fill-rule="evenodd" clip-rule="evenodd" d="M13.0219 8.85662H11.7974V6.2456C11.7974 3.71499 9.71451 1.63254 7.18472 1.63254C4.65452 1.63254 2.57166 3.71499 2.57166 6.2456V8.85662H1.34717V6.2456C1.34717 3.01948 3.96105 0.408051 7.18472 0.408051C10.4084 0.408051 13.0219 3.01948 13.0219 6.2456V8.85662Z" fill="currentColor"/>
<path fill-rule="evenodd" clip-rule="evenodd" d="M1.95959 9.5107C1.59347 9.5107 1.30776 9.79601 1.30776 10.1625V18.0005C1.30776 18.3674 1.59347 18.6527 1.95959 18.6527H12.4098C12.7759 18.6527 13.0612 18.3674 13.0612 18.0005V10.1625C13.0612 9.79601 12.7759 9.5107 12.4098 9.5107H1.95959ZM12.4098 19.9585H1.95959C0.899592 19.9585 0 19.0609 0 18.0005V10.1625C0 9.10254 0.899592 8.20499 1.95959 8.20499H12.4098C13.4694 8.20499 14.369 9.10254 14.369 10.1625V18.0005C14.369 19.1025 13.4694 19.9585 12.4098 19.9585Z" fill="currentColor"/>
<path fill-rule="evenodd" clip-rule="evenodd" d="M8.49017 12.1221C8.49017 12.8572 7.91997 13.4278 7.18446 13.4278C6.44935 13.4278 5.87915 12.8572 5.87915 12.1221C5.87915 11.387 6.44935 10.8164 7.18446 10.8164C7.91997 10.8164 8.49017 11.4287 8.49017 12.1221Z" fill="currentColor"/>
<path fill-rule="evenodd" clip-rule="evenodd" d="M7.51152 12.1221H6.85724L6.20581 16.0413H8.16336L7.51152 12.1221Z" fill="currentColor"/>
</svg>
