<svg width="427" height="429" viewBox="0 0 427 429" fill="none" xmlns="http://www.w3.org/2000/svg">
<circle cx="165" cy="165" r="165" transform="matrix(1 0 0 -1 48 388)" stroke="#E8F1FF" stroke-width="3"/>
<path fill-rule="evenodd" clip-rule="evenodd" d="M358.817 320.576L368.668 310.725C372.581 306.812 372.581 300.469 368.668 296.557L360.997 288.885C357.085 284.974 357.084 278.631 360.997 274.719L370.848 264.867C374.76 260.955 381.103 260.955 385.015 264.867L385.805 265.656C389.717 269.569 396.06 269.569 399.972 265.657L409.823 255.805C413.736 251.893 413.736 245.55 409.823 241.638L202.995 34.8093C199.083 30.8975 192.74 30.8975 188.828 34.8098L178.976 44.6615C175.064 48.5732 175.064 54.9161 178.976 58.8278C182.888 62.7401 182.888 69.0829 178.976 72.9952L169.124 82.8469C165.212 86.7592 158.87 86.7586 154.958 82.8463L127.566 55.4544C123.653 51.5421 117.31 51.5421 113.398 55.4544L103.547 65.306C99.6343 69.2183 99.6343 75.5612 103.547 79.4735L114.294 90.2214C118.207 94.1337 118.207 100.477 114.295 104.388L104.443 114.24C100.531 118.152 94.1882 118.152 90.276 114.24L90.25 114.214C86.3382 110.302 79.9954 110.302 76.0836 114.214L66.232 124.066C62.3197 127.978 62.3197 134.321 66.2314 138.232L67.7868 139.788C71.6986 143.7 71.6986 150.042 67.7868 153.954L57.9352 163.806C54.0229 167.718 47.68 167.718 43.7683 163.806L39.9096 159.948C35.9973 156.035 29.655 156.036 25.7433 159.948L15.8916 169.799C11.9793 173.712 11.9793 180.053 15.8916 183.966L250.912 418.986C254.824 422.898 261.166 422.898 265.078 418.986L274.93 409.135C278.842 405.223 278.842 398.88 274.93 394.968L263.373 383.411C259.461 379.499 259.461 373.156 263.373 369.244L273.225 359.392C277.136 355.48 283.479 355.48 287.392 359.393L301.873 373.874C305.785 377.786 312.128 377.786 316.04 373.874L325.892 364.022C329.803 360.11 329.803 353.767 325.891 349.855L321.498 345.462C317.586 341.55 317.586 335.207 321.498 331.295L331.35 321.443C335.262 317.532 341.605 317.532 345.517 321.444L344.649 320.576C348.562 324.489 354.904 324.489 358.817 320.576Z" fill="#DBE8EC"/>
<path d="M248.19 90.0973L264.61 106.518" stroke="#B9D4DB" stroke-width="3" stroke-linecap="round"/>
<path d="M247.173 98.8238L263.593 115.244" stroke="#B9D4DB" stroke-width="3" stroke-linecap="round"/>
<path d="M246.156 106.534L262.577 122.954" stroke="#B9D4DB" stroke-width="3" stroke-linecap="round"/>
<path d="M358.628 196.951L375.048 213.371" stroke="#B9D4DB" stroke-width="3" stroke-linecap="round"/>
<path d="M361.677 208.727L378.098 225.148" stroke="#B9D4DB" stroke-width="3" stroke-linecap="round"/>
<path d="M362.694 219.487L379.114 235.907" stroke="#B9D4DB" stroke-width="3" stroke-linecap="round"/>
<path d="M52.6111 314.54L67.5383 332.329" stroke="#B9D4DB" stroke-width="3" stroke-linecap="round"/>
<path d="M71.6442 323.299L86.5714 341.089" stroke="#B9D4DB" stroke-width="3" stroke-linecap="round"/>
<path d="M52.6773 329.075L67.6045 346.865" stroke="#B9D4DB" stroke-width="3" stroke-linecap="round"/>
<path fill-rule="evenodd" clip-rule="evenodd" d="M318.552 176.132C323.668 178.102 326.218 183.846 324.247 188.963C322.277 194.078 316.533 196.627 311.417 194.657C306.301 192.687 303.751 186.942 305.721 181.827C307.692 176.711 313.436 174.161 318.552 176.132Z" fill="#B9D4DB"/>
<path fill-rule="evenodd" clip-rule="evenodd" d="M300.531 202.308C303.183 203.33 304.505 206.308 303.484 208.961C302.462 211.613 299.483 212.935 296.831 211.914C294.179 210.892 292.856 207.913 293.878 205.261C294.9 202.609 297.878 201.286 300.531 202.308Z" fill="#B9D4DB"/>
<path fill-rule="evenodd" clip-rule="evenodd" d="M292.369 167.389C296.158 168.849 298.047 173.104 296.587 176.893C295.128 180.683 290.873 182.571 287.084 181.112C283.294 179.652 281.405 175.397 282.865 171.608C284.324 167.818 288.58 165.93 292.369 167.389Z" fill="#B9D4DB"/>
<path fill-rule="evenodd" clip-rule="evenodd" d="M122.381 300.517C122.405 307.039 117.138 312.347 110.616 312.372C104.093 312.397 98.7856 307.129 98.7607 300.607C98.7358 294.084 104.003 288.777 110.526 288.752C117.048 288.727 122.356 293.994 122.381 300.517Z" fill="#B9D4DB"/>
<path fill-rule="evenodd" clip-rule="evenodd" d="M94.1548 292.127C94.1672 295.524 91.4242 298.289 88.0269 298.301C84.6291 298.314 81.865 295.57 81.8514 292.173C81.839 288.776 84.5826 286.011 87.9798 285.998C91.3771 285.986 94.1418 288.729 94.1548 292.127Z" fill="#B9D4DB"/>
<path fill-rule="evenodd" clip-rule="evenodd" d="M97.2018 271.225C97.2093 273.184 95.6269 274.78 93.6669 274.787C91.7075 274.794 90.1126 273.211 90.105 271.252C90.098 269.292 91.6805 267.698 93.6399 267.69C95.5998 267.682 97.1947 269.265 97.2018 271.225Z" fill="#B9D4DB"/>
<path fill-rule="evenodd" clip-rule="evenodd" d="M121.803 273.717C121.821 278.415 118.027 282.238 113.329 282.256C108.631 282.274 104.809 278.479 104.79 273.782C104.772 269.084 108.566 265.261 113.264 265.243C117.962 265.225 121.785 269.019 121.803 273.717Z" fill="#B9D4DB"/>
<path fill-rule="evenodd" clip-rule="evenodd" d="M150.179 96.4862C143.8 97.845 137.527 93.7751 136.167 87.3954C134.809 81.0163 138.878 74.7433 145.258 73.3845C151.637 72.0252 157.91 76.095 159.269 82.4742C160.628 88.8538 156.558 95.1268 150.179 96.4862Z" fill="#B9D4DB"/>
<path fill-rule="evenodd" clip-rule="evenodd" d="M152.773 67.0624C149.451 67.7702 146.183 65.6505 145.475 62.328C144.767 59.0044 146.887 55.7377 150.21 55.0293C153.533 54.3215 156.801 56.4412 157.509 59.7642C158.216 63.0873 156.097 66.3546 152.773 67.0624Z" fill="#B9D4DB"/>
<path fill-rule="evenodd" clip-rule="evenodd" d="M192.598 75.2392C189.722 75.8523 186.893 74.0169 186.281 71.1412C185.668 68.2655 187.503 65.4374 190.379 64.8243C193.255 64.2118 196.083 66.0467 196.696 68.9229C197.308 71.7992 195.474 74.6267 192.598 75.2392Z" fill="#B9D4DB"/>
<path fill-rule="evenodd" clip-rule="evenodd" d="M173.698 65.8466C171.782 66.2544 169.897 65.0315 169.489 63.1155C169.08 61.1983 170.303 59.3137 172.22 58.9059C174.136 58.497 176.021 59.7198 176.43 61.6365C176.838 63.5531 175.615 65.4383 173.698 65.8466Z" fill="#B9D4DB"/>
<path fill-rule="evenodd" clip-rule="evenodd" d="M176.294 90.4371C171.699 91.4163 167.181 88.4848 166.201 83.8901C165.223 79.2949 168.154 74.776 172.749 73.798C177.344 72.8194 181.863 75.7503 182.841 80.3455C183.819 84.9402 180.888 89.4579 176.294 90.4371Z" fill="#B9D4DB"/>
<path fill-rule="evenodd" clip-rule="evenodd" d="M265.2 236.933H160.8C157.598 236.933 155 234.335 155 231.133V153.8C155 150.598 157.598 148 160.8 148H265.2C268.402 148 271 150.598 271 153.8V231.133C271 234.335 268.402 236.933 265.2 236.933Z" fill="#0455BF"/>
<path fill-rule="evenodd" clip-rule="evenodd" d="M253.6 229.2H166.6C164.466 229.2 162.733 227.468 162.733 225.333V159.6C162.733 157.466 164.466 155.733 166.6 155.733H251.667C253.801 155.733 255.533 157.466 255.533 159.6V227.267C255.533 228.334 254.667 229.2 253.6 229.2Z" fill="#FDFEFF"/>
<path fill-rule="evenodd" clip-rule="evenodd" d="M166.6 225.333V159.6C166.6 157.466 168.332 155.733 170.467 155.733H166.6C164.466 155.733 162.733 157.466 162.733 159.6V225.333C162.733 227.468 164.466 229.2 166.6 229.2H170.467C168.332 229.2 166.6 227.468 166.6 225.333Z" fill="#DFEAEF"/>
<path fill-rule="evenodd" clip-rule="evenodd" d="M230.4 192.467C230.4 202.074 222.607 209.867 213 209.867C203.393 209.867 195.6 202.074 195.6 192.467C195.6 182.859 203.393 175.067 213 175.067C222.607 175.067 230.4 182.859 230.4 192.467Z" fill="#0455BF"/>
<path fill-rule="evenodd" clip-rule="evenodd" d="M220.733 200.2C220.733 198.821 221.478 197.553 222.667 196.867C220.099 195.346 216.846 197.21 216.867 200.2V206C218.166 206 219.465 205.848 220.733 205.557V200.2Z" fill="#004787"/>
<path fill-rule="evenodd" clip-rule="evenodd" d="M216.867 206C210.322 206.01 204.331 202.345 201.359 196.514C198.389 190.685 198.943 183.687 202.789 178.389C198.662 181.38 196.054 186.022 195.652 191.098C195.247 196.174 197.09 201.167 200.696 204.77C204.29 208.366 209.285 210.21 214.358 209.807C219.434 209.403 224.087 206.797 227.067 202.667C224.108 204.832 220.532 206 216.867 206Z" fill="#004787"/>
<path fill-rule="evenodd" clip-rule="evenodd" d="M209.133 200.2C208.066 200.2 207.2 199.334 207.2 198.267V186.667C207.2 185.226 208.711 184.29 209.999 184.934L221.599 190.734C222.778 191.33 223.03 192.9 222.102 193.825C221.801 194.129 221.801 194.129 209.999 199.989C209.726 200.13 209.435 200.2 209.133 200.2Z" fill="#FEBC00"/>
<path fill-rule="evenodd" clip-rule="evenodd" d="M221.599 190.735L221.22 190.544L213.866 194.199C212.577 194.844 211.066 193.908 211.066 192.467V185.468L209.999 184.935C208.71 184.29 207.2 185.226 207.2 186.667V198.267C207.189 199.708 208.7 200.644 209.989 200.01C221.78 194.148 221.78 194.148 222.092 193.846C223.02 192.91 222.767 191.338 221.589 190.755L221.599 190.735Z" fill="#EDAA03"/>
<path fill-rule="evenodd" clip-rule="evenodd" d="M191.733 213.733H174.333V217.6H228.467V213.733H191.733Z" fill="#0455BF"/>
<path fill-rule="evenodd" clip-rule="evenodd" d="M263.267 188.6C265.401 188.6 267.133 190.734 267.133 192.467C267.133 194.601 265.401 196.333 263.267 196.333C261.132 196.333 259.4 194.199 259.4 192.467C259.4 190.332 261.132 188.6 263.267 188.6Z" fill="#FEBC00"/>
<path fill-rule="evenodd" clip-rule="evenodd" d="M265.2 194.4C262.39 194.41 260.519 191.5 261.686 188.953C259.209 190.049 258.603 193.302 260.519 195.215C262.442 197.138 265.685 196.534 266.79 194.057C266.288 194.279 265.744 194.4 265.2 194.4Z" fill="#EDAA03"/>
<path fill-rule="evenodd" clip-rule="evenodd" d="M247.8 225.333C245.666 225.333 243.933 227.066 243.933 229.2V223.4C243.933 218.244 236.2 218.244 236.2 223.4V215.667C236.2 210.511 228.467 210.511 228.467 215.667V200.2C228.467 195.044 220.733 195.044 220.733 200.2V239.199C220.733 241.344 218.145 242.411 216.635 240.901L209.133 233.399C207.633 231.847 205.146 231.829 203.625 233.358C202.096 234.879 202.114 237.366 203.666 238.867L211.863 247.074L215.315 250.518C218.89 254.091 220.903 258.945 220.903 264H246.663V263.276C246.663 260.497 247.537 257.788 249.159 255.522C250.79 253.266 251.667 250.557 251.667 247.778V229.2C251.667 227.066 249.934 225.333 247.8 225.333Z" fill="#ECC19C"/>
<path fill-rule="evenodd" clip-rule="evenodd" d="M185.933 219.533C182.489 219.533 180.767 215.365 183.196 212.929C185.632 210.501 189.8 212.223 189.8 215.667C189.8 217.801 188.068 219.533 185.933 219.533Z" fill="#FEBC00"/>
<path fill-rule="evenodd" clip-rule="evenodd" d="M187.867 217.6C185.057 217.61 183.185 214.7 184.353 212.153C181.876 213.249 181.27 216.502 183.185 218.415C185.108 220.338 188.351 219.734 189.457 217.257C188.954 217.479 188.411 217.6 187.867 217.6Z" fill="#EDAA03"/>
<path fill-rule="evenodd" clip-rule="evenodd" d="M203.666 233.399C203.908 233.167 204.179 232.966 204.462 232.796C201.57 231.102 198.046 233.662 198.752 236.933H202.619C202.346 235.654 202.74 234.324 203.666 233.399ZM216.866 236.933H220.733V229.2H216.866V236.933Z" fill="#004787"/>
<mask id="mask0_106_782" style="mask-type:luminance" maskUnits="userSpaceOnUse" x="155" y="148" width="116" height="116">
<path fill-rule="evenodd" clip-rule="evenodd" d="M155 264H271V148H155V264Z" fill="white"/>
</mask>
<g mask="url(#mask0_106_782)">
<path fill-rule="evenodd" clip-rule="evenodd" d="M216.867 229.2H220.733V217.6H216.867V229.2ZM220.733 208.034C220.28 208.256 219.818 208.467 219.354 208.647C219.192 208.709 219.032 208.769 218.859 208.83C218.426 208.99 217.985 209.122 217.532 209.243C217.341 209.292 217.13 209.354 216.926 209.403L216.856 209.423V213.733H220.723L220.733 208.034Z" fill="#DFEAEF"/>
<path fill-rule="evenodd" clip-rule="evenodd" d="M220.733 205.557C219.465 205.848 218.166 206 216.867 206V209.413L216.936 209.403C217.764 209.202 218.568 208.949 219.354 208.648C219.826 208.457 220.29 208.266 220.733 208.024V205.557ZM216.867 217.6H220.733V213.734H216.867V217.6Z" fill="#004787"/>
</g>
<g clip-path="url(#clip0_106_782)">
<path d="M175.376 288V268.41C175.376 268.29 175.386 268.08 175.406 267.78C175.426 267.48 175.436 267.25 175.436 267.09C175.436 265.59 174.916 264.85 173.876 264.87C172.476 264.87 171.596 264.9 171.236 264.96C170.096 265.1 169.246 265.45 168.686 266.01C168.186 266.45 167.636 267 167.036 267.66V264.69C167.036 264.31 167.286 264.1 167.786 264.06C169.186 264.02 175.166 264.02 185.726 264.06C186.566 264.06 187.016 264.37 187.076 264.99V267.54C186.276 266.44 185.446 265.69 184.586 265.29C183.946 265.03 182.586 264.91 180.506 264.93C179.706 264.95 179.196 265.22 178.976 265.74C178.856 266.04 178.796 266.68 178.796 267.66V286.8C178.796 287.54 178.466 287.94 177.806 288H175.376ZM195.557 286.53C194.437 287.17 193.467 287.49 192.647 287.49C192.407 287.51 192.177 287.52 191.957 287.52C189.957 287.52 188.557 286.63 187.757 284.85C187.437 284.11 187.247 283.23 187.187 282.21L187.217 279.54H197.087C197.887 279.46 198.317 279 198.377 278.16C198.377 277.08 198.107 275.78 197.567 274.26C197.167 273.12 196.627 272.13 195.947 271.29C195.267 270.43 194.547 269.79 193.787 269.37C193.107 268.99 192.377 268.8 191.597 268.8C189.697 268.8 188.027 269.71 186.587 271.53C184.707 273.91 183.767 276.61 183.767 279.63C183.767 281.83 184.347 283.72 185.507 285.3C186.507 286.7 187.887 287.58 189.647 287.94C190.507 288.12 191.267 288.21 191.927 288.21C193.607 288.21 195.197 287.72 196.697 286.74C197.597 286.14 198.047 285.68 198.047 285.36C198.047 285.22 197.977 285.15 197.837 285.15C197.697 285.15 197.397 285.31 196.937 285.63C196.237 286.11 195.777 286.41 195.557 286.53ZM189.167 270.51C189.827 270.01 190.527 269.76 191.267 269.76C192.527 269.76 193.467 270.39 194.087 271.65C194.667 272.83 195.007 274.43 195.107 276.45C195.127 277.15 195.117 277.64 195.077 277.92C195.057 278.06 195.017 278.18 194.957 278.28C194.797 278.54 194.557 278.71 194.237 278.79H187.187C187.227 276.03 187.257 274.55 187.277 274.35C187.497 272.59 188.127 271.31 189.167 270.51ZM205.65 262.14V286.8C205.65 287.54 205.16 287.94 204.18 288H202.11V263.25C202.11 262.55 202.44 262.18 203.1 262.14H205.65ZM221.227 286.53C220.107 287.17 219.137 287.49 218.317 287.49C218.077 287.51 217.847 287.52 217.627 287.52C215.627 287.52 214.227 286.63 213.427 284.85C213.107 284.11 212.917 283.23 212.857 282.21L212.887 279.54H222.757C223.557 279.46 223.987 279 224.047 278.16C224.047 277.08 223.777 275.78 223.237 274.26C222.837 273.12 222.297 272.13 221.617 271.29C220.937 270.43 220.217 269.79 219.457 269.37C218.777 268.99 218.047 268.8 217.267 268.8C215.367 268.8 213.697 269.71 212.257 271.53C210.377 273.91 209.437 276.61 209.437 279.63C209.437 281.83 210.017 283.72 211.177 285.3C212.177 286.7 213.557 287.58 215.317 287.94C216.177 288.12 216.937 288.21 217.597 288.21C219.277 288.21 220.867 287.72 222.367 286.74C223.267 286.14 223.717 285.68 223.717 285.36C223.717 285.22 223.647 285.15 223.507 285.15C223.367 285.15 223.067 285.31 222.607 285.63C221.907 286.11 221.447 286.41 221.227 286.53ZM214.837 270.51C215.497 270.01 216.197 269.76 216.937 269.76C218.197 269.76 219.137 270.39 219.757 271.65C220.337 272.83 220.677 274.43 220.777 276.45C220.797 277.15 220.787 277.64 220.747 277.92C220.727 278.06 220.687 278.18 220.627 278.28C220.467 278.54 220.227 278.71 219.907 278.79H212.857C212.897 276.03 212.927 274.55 212.947 274.35C213.167 272.59 213.797 271.31 214.837 270.51ZM242.209 273.78C242.069 272.56 241.679 271.53 241.039 270.69C240.339 269.75 239.419 269.16 238.279 268.92C237.859 268.82 237.379 268.76 236.839 268.74C235.299 268.68 233.849 269.06 232.489 269.88C232.009 270.16 231.559 270.45 231.139 270.75C230.319 271.35 229.649 271.95 229.129 272.55C228.849 272.89 228.709 273.11 228.709 273.21C228.709 273.27 228.729 273.32 228.769 273.36C228.929 273.46 229.359 273.26 230.059 272.76C230.699 272.3 231.329 271.84 231.949 271.38C232.749 270.8 233.419 270.42 233.959 270.24C234.379 270.1 234.819 270.03 235.279 270.03C235.819 270.03 236.369 270.12 236.929 270.3C238.329 270.74 239.029 272.51 239.029 275.61C239.029 275.99 239.019 276.41 238.999 276.87C238.979 277.31 238.969 277.54 238.969 277.56C238.969 277.68 238.919 277.74 238.819 277.74C238.639 277.74 238.359 277.57 237.979 277.23C237.339 276.65 236.529 276.19 235.549 275.85C234.889 275.61 234.209 275.49 233.509 275.49C232.529 275.49 231.659 275.71 230.899 276.15C228.819 277.35 227.779 279.34 227.779 282.12C227.779 283.32 227.999 284.45 228.439 285.51C228.739 286.23 229.159 286.8 229.699 287.22C230.359 287.74 231.199 288 232.219 288C232.959 288 233.689 287.87 234.409 287.61C235.049 287.39 235.629 287.09 236.149 286.71C237.169 285.97 238.149 284.88 239.089 283.44V286.95C239.149 287.65 239.529 288 240.229 288H241.519H242.419V278.91C242.419 276.69 242.349 274.98 242.209 273.78ZM238.399 282.9C237.079 285.1 235.599 286.1 233.959 285.9C232.299 285.7 231.379 284.45 231.199 282.15C231.099 280.85 231.249 279.69 231.649 278.67C231.809 278.23 232.119 277.8 232.579 277.38C233.039 276.94 233.489 276.69 233.929 276.63C234.669 276.53 235.459 276.73 236.299 277.23C236.799 277.51 237.329 277.96 237.889 278.58C238.469 279.2 238.849 279.77 239.029 280.29C239.089 280.47 239.119 280.66 239.119 280.86C239.119 281.42 238.879 282.1 238.399 282.9ZM262.441 263.28C262.401 262.5 262.111 262.11 261.571 262.11H259.051V263.28V271.98C259.051 272.5 258.951 272.76 258.751 272.76C258.611 272.76 258.421 272.57 258.181 272.19C256.541 269.91 254.811 268.77 252.991 268.77C252.391 268.77 251.811 268.91 251.251 269.19C250.431 269.73 249.691 270.4 249.031 271.2C247.491 273.12 246.531 275.57 246.151 278.55C246.011 284.85 247.981 288 252.061 288C252.681 287.9 253.331 287.63 254.011 287.19C255.651 286.13 257.331 284.26 259.051 281.58V286.95C259.111 287.65 259.521 288 260.281 288H262.441V263.28ZM258.961 278.61C258.801 280.13 258.001 281.74 256.561 283.44C255.841 284.32 255.031 285.03 254.131 285.57C253.711 285.83 253.291 285.96 252.871 285.96C251.971 285.96 251.221 285.44 250.621 284.4C249.761 282.96 249.331 281.18 249.331 279.06C249.331 277.62 249.561 276.22 250.021 274.86C250.761 272.56 251.621 271.03 252.601 270.27C252.921 270.03 253.261 269.91 253.621 269.91C254.401 269.91 255.271 270.5 256.231 271.68C257.051 272.66 257.681 273.54 258.121 274.32C258.861 275.62 259.141 277.05 258.961 278.61Z" fill="#332DA1"/>
<path d="M164.382 300.779H166.912V302H162.842V294.322H164.382V300.779ZM169.43 295.565V297.49H172.015V298.711H169.43V300.746H172.345V302H167.89V294.311H172.345V295.565H169.43ZM178.453 300.537H175.395L174.889 302H173.272L176.033 294.311H177.826L180.587 302H178.959L178.453 300.537ZM178.035 299.305L176.924 296.093L175.813 299.305H178.035ZM185.579 302L183.885 299.008H183.159V302H181.619V294.322H184.501C185.095 294.322 185.601 294.428 186.019 294.641C186.437 294.846 186.749 295.129 186.954 295.488C187.167 295.84 187.273 296.236 187.273 296.676C187.273 297.182 187.126 297.64 186.833 298.051C186.54 298.454 186.103 298.733 185.524 298.887L187.361 302H185.579ZM183.159 297.853H184.446C184.864 297.853 185.176 297.754 185.381 297.556C185.586 297.351 185.689 297.068 185.689 296.709C185.689 296.357 185.586 296.086 185.381 295.895C185.176 295.697 184.864 295.598 184.446 295.598H183.159V297.853ZM195.233 302H193.693L190.206 296.731V302H188.666V294.311H190.206L193.693 299.591V294.311H195.233V302ZM204.117 294.322V295.565H200.916V297.534H203.369V298.755H200.916V302H199.376V294.322H204.117ZM209.169 302L207.475 299.008H206.749V302H205.209V294.322H208.091C208.685 294.322 209.191 294.428 209.609 294.641C210.027 294.846 210.338 295.129 210.544 295.488C210.756 295.84 210.863 296.236 210.863 296.676C210.863 297.182 210.716 297.64 210.423 298.051C210.129 298.454 209.693 298.733 209.114 298.887L210.951 302H209.169ZM206.749 297.853H208.036C208.454 297.853 208.765 297.754 208.971 297.556C209.176 297.351 209.279 297.068 209.279 296.709C209.279 296.357 209.176 296.086 208.971 295.895C208.765 295.697 208.454 295.598 208.036 295.598H206.749V297.853ZM215.82 302.077C215.101 302.077 214.441 301.908 213.84 301.571C213.238 301.234 212.762 300.768 212.41 300.174C212.058 299.573 211.882 298.894 211.882 298.139C211.882 297.391 212.058 296.72 212.41 296.126C212.762 295.525 213.238 295.055 213.84 294.718C214.441 294.381 215.101 294.212 215.82 294.212C216.546 294.212 217.206 294.381 217.8 294.718C218.401 295.055 218.874 295.525 219.219 296.126C219.571 296.72 219.747 297.391 219.747 298.139C219.747 298.894 219.571 299.573 219.219 300.174C218.874 300.768 218.401 301.234 217.8 301.571C217.198 301.908 216.538 302.077 215.82 302.077ZM215.82 300.702C216.282 300.702 216.689 300.599 217.041 300.394C217.393 300.181 217.668 299.881 217.866 299.492C218.064 299.103 218.163 298.652 218.163 298.139C218.163 297.626 218.064 297.178 217.866 296.797C217.668 296.408 217.393 296.111 217.041 295.906C216.689 295.701 216.282 295.598 215.82 295.598C215.358 295.598 214.947 295.701 214.588 295.906C214.236 296.111 213.961 296.408 213.763 296.797C213.565 297.178 213.466 297.626 213.466 298.139C213.466 298.652 213.565 299.103 213.763 299.492C213.961 299.881 214.236 300.181 214.588 300.394C214.947 300.599 215.358 300.702 215.82 300.702ZM229.263 294.322V302H227.723V297.006L225.666 302H224.5L222.432 297.006V302H220.892V294.322H222.641L225.083 300.031L227.525 294.322H229.263ZM239.776 294.322V302H238.236V298.733H234.947V302H233.407V294.322H234.947V297.479H238.236V294.322H239.776ZM244.856 302.077C244.137 302.077 243.477 301.908 242.876 301.571C242.274 301.234 241.798 300.768 241.446 300.174C241.094 299.573 240.918 298.894 240.918 298.139C240.918 297.391 241.094 296.72 241.446 296.126C241.798 295.525 242.274 295.055 242.876 294.718C243.477 294.381 244.137 294.212 244.856 294.212C245.582 294.212 246.242 294.381 246.836 294.718C247.437 295.055 247.91 295.525 248.255 296.126C248.607 296.72 248.783 297.391 248.783 298.139C248.783 298.894 248.607 299.573 248.255 300.174C247.91 300.768 247.437 301.234 246.836 301.571C246.234 301.908 245.574 302.077 244.856 302.077ZM244.856 300.702C245.318 300.702 245.725 300.599 246.077 300.394C246.429 300.181 246.704 299.881 246.902 299.492C247.1 299.103 247.199 298.652 247.199 298.139C247.199 297.626 247.1 297.178 246.902 296.797C246.704 296.408 246.429 296.111 246.077 295.906C245.725 295.701 245.318 295.598 244.856 295.598C244.394 295.598 243.983 295.701 243.624 295.906C243.272 296.111 242.997 296.408 242.799 296.797C242.601 297.178 242.502 297.626 242.502 298.139C242.502 298.652 242.601 299.103 242.799 299.492C242.997 299.881 243.272 300.181 243.624 300.394C243.983 300.599 244.394 300.702 244.856 300.702ZM258.299 294.322V302H256.759V297.006L254.702 302H253.536L251.468 297.006V302H249.928V294.322H251.677L254.119 300.031L256.561 294.322H258.299ZM261.362 295.565V297.49H263.947V298.711H261.362V300.746H264.277V302H259.822V294.311H264.277V295.565H261.362Z" fill="black"/>
</g>
<defs>
<clipPath id="clip0_106_782">
<rect width="103" height="45" fill="white" transform="translate(162 261)"/>
</clipPath>
</defs>
</svg>
