<svg width="185" height="70" viewBox="0 0 185 70" fill="none" xmlns="http://www.w3.org/2000/svg">
<path fill-rule="evenodd" clip-rule="evenodd" d="M66.5 53.6667H3.5C1.568 53.6667 0 52.0987 0 50.1667V3.5C0 1.568 1.568 0 3.5 0H66.5C68.432 0 70 1.568 70 3.5V50.1667C70 52.0987 68.432 53.6667 66.5 53.6667Z" fill="#0455BF"/>
<path fill-rule="evenodd" clip-rule="evenodd" d="M59.5001 49H7.00008C5.71208 49 4.66675 47.9547 4.66675 46.6667V7C4.66675 5.712 5.71208 4.66667 7.00008 4.66667H58.3334C59.6214 4.66667 60.6667 5.712 60.6667 7V47.8333C60.6667 48.4773 60.1441 49 59.5001 49Z" fill="#FDFEFF"/>
<path fill-rule="evenodd" clip-rule="evenodd" d="M7.00008 46.6667V7C7.00008 5.712 8.04541 4.66667 9.33341 4.66667H7.00008C5.71208 4.66667 4.66675 5.712 4.66675 7V46.6667C4.66675 47.9547 5.71208 49 7.00008 49H9.33341C8.04541 49 7.00008 47.9547 7.00008 46.6667Z" fill="#DFEAEF"/>
<path fill-rule="evenodd" clip-rule="evenodd" d="M45.5 26.8333C45.5 32.6309 40.7976 37.3333 35 37.3333C29.2024 37.3333 24.5 32.6309 24.5 26.8333C24.5 21.0358 29.2024 16.3333 35 16.3333C40.7976 16.3333 45.5 21.0358 45.5 26.8333Z" fill="#0455BF"/>
<path fill-rule="evenodd" clip-rule="evenodd" d="M39.6666 31.5C39.6666 30.6678 40.1162 29.9024 40.8333 29.4887C39.284 28.5709 37.3209 29.6956 37.3333 31.5V35C38.1173 35 38.9013 34.9082 39.6666 34.7324V31.5Z" fill="#004787"/>
<path fill-rule="evenodd" clip-rule="evenodd" d="M37.3332 35C33.3837 35.0062 29.7686 32.7942 27.975 29.2756C26.183 25.7584 26.5174 21.5351 28.8383 18.3384C26.3479 20.1429 24.7737 22.9444 24.531 26.0073C24.2868 29.0702 25.399 32.0833 27.5752 34.258C29.7437 36.428 32.7583 37.5402 35.8197 37.2976C38.8826 37.0533 41.6903 35.4807 43.4886 32.9887C41.7028 34.2953 39.5452 35 37.3332 35Z" fill="#004787"/>
<path fill-rule="evenodd" clip-rule="evenodd" d="M32.6667 31.5C32.0227 31.5 31.5 30.9773 31.5 30.3333V23.3333C31.5 22.4638 32.4116 21.8991 33.1893 22.288L40.1893 25.788C40.9002 26.1473 41.0527 27.0947 40.4927 27.6531C40.3107 27.8367 40.3107 27.8367 33.1893 31.3724C33.0244 31.458 32.8487 31.5 32.6667 31.5Z" fill="#FEBC00"/>
<path fill-rule="evenodd" clip-rule="evenodd" d="M40.1891 25.7882L39.9605 25.673L35.5225 27.8788C34.7447 28.2677 33.8331 27.703 33.8331 26.8335V22.6102L33.1891 22.2882C32.4113 21.8993 31.4998 22.4639 31.4998 23.3335V30.3335C31.4936 31.203 32.4051 31.7677 33.1829 31.385C40.298 27.8477 40.298 27.8477 40.4862 27.6657C41.0462 27.101 40.8938 26.1522 40.1829 25.8006L40.1891 25.7882Z" fill="#EDAA03"/>
<path fill-rule="evenodd" clip-rule="evenodd" d="M22.1667 39.6667H11.6667V42H44.3334V39.6667H22.1667Z" fill="#0455BF"/>
<path fill-rule="evenodd" clip-rule="evenodd" d="M65.3333 24.5C66.6213 24.5 67.6667 25.788 67.6667 26.8333C67.6667 28.1213 66.6213 29.1667 65.3333 29.1667C64.0453 29.1667 63 27.8787 63 26.8333C63 25.5453 64.0453 24.5 65.3333 24.5Z" fill="#FEBC00"/>
<path fill-rule="evenodd" clip-rule="evenodd" d="M66.5001 28C64.8045 28.0062 63.6752 26.25 64.3799 24.7131C62.885 25.3742 62.5194 27.3373 63.6752 28.4916C64.8356 29.652 66.7925 29.288 67.4599 27.7931C67.1565 27.9269 66.8283 28 66.5001 28Z" fill="#EDAA03"/>
<path fill-rule="evenodd" clip-rule="evenodd" d="M56 46.6667C54.712 46.6667 53.6666 47.712 53.6666 49V45.5C53.6666 42.3889 49 42.3889 49 45.5V40.8333C49 37.7222 44.3333 37.7222 44.3333 40.8333V31.5C44.3333 28.3889 39.6666 28.3889 39.6666 31.5V55.034C39.6666 56.3282 38.1049 56.9722 37.1933 56.0607L32.6666 51.534C31.7613 50.5976 30.2602 50.5867 29.3424 51.5091C28.42 52.4269 28.4309 53.928 29.3673 54.8333L34.314 59.7862L36.3969 61.8644C38.5544 64.0204 39.7693 66.9496 39.7693 70H55.314V69.5629C55.314 67.886 55.8413 66.2511 56.8198 64.8838C57.8044 63.5227 58.3333 61.8878 58.3333 60.2109V49C58.3333 47.712 57.288 46.6667 56 46.6667Z" fill="#ECC19C"/>
<path fill-rule="evenodd" clip-rule="evenodd" d="M18.6668 43.1667C16.5886 43.1667 15.5494 40.6513 17.0148 39.1813C18.4848 37.716 21.0001 38.7551 21.0001 40.8333C21.0001 42.1213 19.9548 43.1667 18.6668 43.1667Z" fill="#FEBC00"/>
<path fill-rule="evenodd" clip-rule="evenodd" d="M19.8333 42C18.1378 42.0062 17.0084 40.25 17.7131 38.7131C16.2182 39.3742 15.8527 41.3373 17.0084 42.4916C18.1689 43.652 20.1258 43.288 20.7931 41.7931C20.4898 41.9269 20.1616 42 19.8333 42Z" fill="#EDAA03"/>
<path fill-rule="evenodd" clip-rule="evenodd" d="M29.3673 51.5338C29.5135 51.3938 29.6768 51.2725 29.8479 51.1698C28.1026 50.1478 25.9762 51.6925 26.4024 53.6665H28.7357C28.5708 52.895 28.8088 52.0923 29.3673 51.5338ZM37.3333 53.6665H39.6666V48.9998H37.3333V53.6665Z" fill="#004787"/>
<mask id="mask0_0_153" style="mask-type:luminance" maskUnits="userSpaceOnUse" x="0" y="0" width="70" height="70">
<path fill-rule="evenodd" clip-rule="evenodd" d="M0 70H70V0H0V70Z" fill="white"/>
</mask>
<g mask="url(#mask0_0_153)">
<path fill-rule="evenodd" clip-rule="evenodd" d="M37.3334 49H39.6667V42H37.3334V49ZM39.6667 36.2273C39.3929 36.3611 39.1145 36.4887 38.8345 36.5976C38.7365 36.6349 38.64 36.6707 38.5358 36.708C38.2745 36.8044 38.0085 36.8838 37.7347 36.9569C37.6196 36.9864 37.492 37.0238 37.3691 37.0533L37.3271 37.0658V39.6667H39.6605L39.6667 36.2273Z" fill="#DFEAEF"/>
<path fill-rule="evenodd" clip-rule="evenodd" d="M39.6666 34.7326C38.9013 34.9084 38.1173 35.0002 37.3333 35.0002V37.0597L37.3753 37.0535C37.8746 36.9322 38.3599 36.7797 38.8344 36.5977C39.119 36.4826 39.399 36.3675 39.6666 36.2213V34.7326ZM37.3333 42.0002H39.6666V39.6668H37.3333V42.0002Z" fill="#004787"/>
</g>
<g clip-path="url(#clip0_0_153)">
<path d="M95.3761 32V12.41C95.3761 12.29 95.3861 12.08 95.4061 11.78C95.4261 11.48 95.4361 11.25 95.4361 11.09C95.4361 9.59 94.9161 8.85 93.8761 8.87C92.4761 8.87 91.5961 8.9 91.2361 8.96C90.0961 9.1 89.2461 9.45 88.6861 10.01C88.1861 10.45 87.6361 11 87.0361 11.66V8.69C87.0361 8.31 87.2861 8.1 87.7861 8.06C89.1861 8.02 95.1661 8.02 105.726 8.06C106.566 8.06 107.016 8.37 107.076 8.99V11.54C106.276 10.44 105.446 9.69 104.586 9.29C103.946 9.03 102.586 8.91 100.506 8.93C99.7061 8.95 99.1961 9.22 98.9761 9.74C98.8561 10.04 98.7961 10.68 98.7961 11.66V30.8C98.7961 31.54 98.4661 31.94 97.8061 32H95.3761ZM115.557 30.53C114.437 31.17 113.467 31.49 112.647 31.49C112.407 31.51 112.177 31.52 111.957 31.52C109.957 31.52 108.557 30.63 107.757 28.85C107.437 28.11 107.247 27.23 107.187 26.21L107.217 23.54H117.087C117.887 23.46 118.317 23 118.377 22.16C118.377 21.08 118.107 19.78 117.567 18.26C117.167 17.12 116.627 16.13 115.947 15.29C115.267 14.43 114.547 13.79 113.787 13.37C113.107 12.99 112.377 12.8 111.597 12.8C109.697 12.8 108.027 13.71 106.587 15.53C104.707 17.91 103.767 20.61 103.767 23.63C103.767 25.83 104.347 27.72 105.507 29.3C106.507 30.7 107.887 31.58 109.647 31.94C110.507 32.12 111.267 32.21 111.927 32.21C113.607 32.21 115.197 31.72 116.697 30.74C117.597 30.14 118.047 29.68 118.047 29.36C118.047 29.22 117.977 29.15 117.837 29.15C117.697 29.15 117.397 29.31 116.937 29.63C116.237 30.11 115.777 30.41 115.557 30.53ZM109.167 14.51C109.827 14.01 110.527 13.76 111.267 13.76C112.527 13.76 113.467 14.39 114.087 15.65C114.667 16.83 115.007 18.43 115.107 20.45C115.127 21.15 115.117 21.64 115.077 21.92C115.057 22.06 115.017 22.18 114.957 22.28C114.797 22.54 114.557 22.71 114.237 22.79H107.187C107.227 20.03 107.257 18.55 107.277 18.35C107.497 16.59 108.127 15.31 109.167 14.51ZM125.65 6.14V30.8C125.65 31.54 125.16 31.94 124.18 32H122.11V7.25C122.11 6.55 122.44 6.18 123.1 6.14H125.65ZM141.227 30.53C140.107 31.17 139.137 31.49 138.317 31.49C138.077 31.51 137.847 31.52 137.627 31.52C135.627 31.52 134.227 30.63 133.427 28.85C133.107 28.11 132.917 27.23 132.857 26.21L132.887 23.54H142.757C143.557 23.46 143.987 23 144.047 22.16C144.047 21.08 143.777 19.78 143.237 18.26C142.837 17.12 142.297 16.13 141.617 15.29C140.937 14.43 140.217 13.79 139.457 13.37C138.777 12.99 138.047 12.8 137.267 12.8C135.367 12.8 133.697 13.71 132.257 15.53C130.377 17.91 129.437 20.61 129.437 23.63C129.437 25.83 130.017 27.72 131.177 29.3C132.177 30.7 133.557 31.58 135.317 31.94C136.177 32.12 136.937 32.21 137.597 32.21C139.277 32.21 140.867 31.72 142.367 30.74C143.267 30.14 143.717 29.68 143.717 29.36C143.717 29.22 143.647 29.15 143.507 29.15C143.367 29.15 143.067 29.31 142.607 29.63C141.907 30.11 141.447 30.41 141.227 30.53ZM134.837 14.51C135.497 14.01 136.197 13.76 136.937 13.76C138.197 13.76 139.137 14.39 139.757 15.65C140.337 16.83 140.677 18.43 140.777 20.45C140.797 21.15 140.787 21.64 140.747 21.92C140.727 22.06 140.687 22.18 140.627 22.28C140.467 22.54 140.227 22.71 139.907 22.79H132.857C132.897 20.03 132.927 18.55 132.947 18.35C133.167 16.59 133.797 15.31 134.837 14.51ZM162.209 17.78C162.069 16.56 161.679 15.53 161.039 14.69C160.339 13.75 159.419 13.16 158.279 12.92C157.859 12.82 157.379 12.76 156.839 12.74C155.299 12.68 153.849 13.06 152.489 13.88C152.009 14.16 151.559 14.45 151.139 14.75C150.319 15.35 149.649 15.95 149.129 16.55C148.849 16.89 148.709 17.11 148.709 17.21C148.709 17.27 148.729 17.32 148.769 17.36C148.929 17.46 149.359 17.26 150.059 16.76C150.699 16.3 151.329 15.84 151.949 15.38C152.749 14.8 153.419 14.42 153.959 14.24C154.379 14.1 154.819 14.03 155.279 14.03C155.819 14.03 156.369 14.12 156.929 14.3C158.329 14.74 159.029 16.51 159.029 19.61C159.029 19.99 159.019 20.41 158.999 20.87C158.979 21.31 158.969 21.54 158.969 21.56C158.969 21.68 158.919 21.74 158.819 21.74C158.639 21.74 158.359 21.57 157.979 21.23C157.339 20.65 156.529 20.19 155.549 19.85C154.889 19.61 154.209 19.49 153.509 19.49C152.529 19.49 151.659 19.71 150.899 20.15C148.819 21.35 147.779 23.34 147.779 26.12C147.779 27.32 147.999 28.45 148.439 29.51C148.739 30.23 149.159 30.8 149.699 31.22C150.359 31.74 151.199 32 152.219 32C152.959 32 153.689 31.87 154.409 31.61C155.049 31.39 155.629 31.09 156.149 30.71C157.169 29.97 158.149 28.88 159.089 27.44V30.95C159.149 31.65 159.529 32 160.229 32H161.519H162.419V22.91C162.419 20.69 162.349 18.98 162.209 17.78ZM158.399 26.9C157.079 29.1 155.599 30.1 153.959 29.9C152.299 29.7 151.379 28.45 151.199 26.15C151.099 24.85 151.249 23.69 151.649 22.67C151.809 22.23 152.119 21.8 152.579 21.38C153.039 20.94 153.489 20.69 153.929 20.63C154.669 20.53 155.459 20.73 156.299 21.23C156.799 21.51 157.329 21.96 157.889 22.58C158.469 23.2 158.849 23.77 159.029 24.29C159.089 24.47 159.119 24.66 159.119 24.86C159.119 25.42 158.879 26.1 158.399 26.9ZM182.441 7.28C182.401 6.5 182.111 6.11 181.571 6.11H179.051V7.28V15.98C179.051 16.5 178.951 16.76 178.751 16.76C178.611 16.76 178.421 16.57 178.181 16.19C176.541 13.91 174.811 12.77 172.991 12.77C172.391 12.77 171.811 12.91 171.251 13.19C170.431 13.73 169.691 14.4 169.031 15.2C167.491 17.12 166.531 19.57 166.151 22.55C166.011 28.85 167.981 32 172.061 32C172.681 31.9 173.331 31.63 174.011 31.19C175.651 30.13 177.331 28.26 179.051 25.58V30.95C179.111 31.65 179.521 32 180.281 32H182.441V7.28ZM178.961 22.61C178.801 24.13 178.001 25.74 176.561 27.44C175.841 28.32 175.031 29.03 174.131 29.57C173.711 29.83 173.291 29.96 172.871 29.96C171.971 29.96 171.221 29.44 170.621 28.4C169.761 26.96 169.331 25.18 169.331 23.06C169.331 21.62 169.561 20.22 170.021 18.86C170.761 16.56 171.621 15.03 172.601 14.27C172.921 14.03 173.261 13.91 173.621 13.91C174.401 13.91 175.271 14.5 176.231 15.68C177.051 16.66 177.681 17.54 178.121 18.32C178.861 19.62 179.141 21.05 178.961 22.61Z" fill="#332DA1"/>
<path d="M84.3815 44.779H86.9115V46H82.8415V38.322H84.3815V44.779ZM89.4303 39.565V41.49H92.0153V42.711H89.4303V44.746H92.3453V46H87.8903V38.311H92.3453V39.565H89.4303ZM98.4528 44.537H95.3948L94.8888 46H93.2718L96.0328 38.311H97.8258L100.587 46H98.9588L98.4528 44.537ZM98.0348 43.305L96.9238 40.093L95.8128 43.305H98.0348ZM105.579 46L103.885 43.008H103.159V46H101.619V38.322H104.501C105.095 38.322 105.601 38.4283 106.019 38.641C106.437 38.8463 106.749 39.1287 106.954 39.488C107.167 39.84 107.273 40.236 107.273 40.676C107.273 41.182 107.126 41.6403 106.833 42.051C106.54 42.4543 106.103 42.733 105.524 42.887L107.361 46H105.579ZM103.159 41.853H104.446C104.864 41.853 105.176 41.754 105.381 41.556C105.586 41.3507 105.689 41.0683 105.689 40.709C105.689 40.357 105.586 40.0857 105.381 39.895C105.176 39.697 104.864 39.598 104.446 39.598H103.159V41.853ZM115.233 46H113.693L110.206 40.731V46H108.666V38.311H110.206L113.693 43.591V38.311H115.233V46ZM124.117 38.322V39.565H120.916V41.534H123.369V42.755H120.916V46H119.376V38.322H124.117ZM129.169 46L127.475 43.008H126.749V46H125.209V38.322H128.091C128.685 38.322 129.191 38.4283 129.609 38.641C130.027 38.8463 130.338 39.1287 130.544 39.488C130.756 39.84 130.863 40.236 130.863 40.676C130.863 41.182 130.716 41.6403 130.423 42.051C130.129 42.4543 129.693 42.733 129.114 42.887L130.951 46H129.169ZM126.749 41.853H128.036C128.454 41.853 128.765 41.754 128.971 41.556C129.176 41.3507 129.279 41.0683 129.279 40.709C129.279 40.357 129.176 40.0857 128.971 39.895C128.765 39.697 128.454 39.598 128.036 39.598H126.749V41.853ZM135.82 46.077C135.101 46.077 134.441 45.9083 133.84 45.571C133.238 45.2337 132.762 44.768 132.41 44.174C132.058 43.5727 131.882 42.8943 131.882 42.139C131.882 41.391 132.058 40.72 132.41 40.126C132.762 39.5247 133.238 39.0553 133.84 38.718C134.441 38.3807 135.101 38.212 135.82 38.212C136.546 38.212 137.206 38.3807 137.8 38.718C138.401 39.0553 138.874 39.5247 139.219 40.126C139.571 40.72 139.747 41.391 139.747 42.139C139.747 42.8943 139.571 43.5727 139.219 44.174C138.874 44.768 138.401 45.2337 137.8 45.571C137.198 45.9083 136.538 46.077 135.82 46.077ZM135.82 44.702C136.282 44.702 136.689 44.5993 137.041 44.394C137.393 44.1813 137.668 43.8807 137.866 43.492C138.064 43.1033 138.163 42.6523 138.163 42.139C138.163 41.6257 138.064 41.1783 137.866 40.797C137.668 40.4083 137.393 40.1113 137.041 39.906C136.689 39.7007 136.282 39.598 135.82 39.598C135.358 39.598 134.947 39.7007 134.588 39.906C134.236 40.1113 133.961 40.4083 133.763 40.797C133.565 41.1783 133.466 41.6257 133.466 42.139C133.466 42.6523 133.565 43.1033 133.763 43.492C133.961 43.8807 134.236 44.1813 134.588 44.394C134.947 44.5993 135.358 44.702 135.82 44.702ZM149.263 38.322V46H147.723V41.006L145.666 46H144.5L142.432 41.006V46H140.892V38.322H142.641L145.083 44.031L147.525 38.322H149.263ZM159.776 38.322V46H158.236V42.733H154.947V46H153.407V38.322H154.947V41.479H158.236V38.322H159.776ZM164.856 46.077C164.137 46.077 163.477 45.9083 162.876 45.571C162.274 45.2337 161.798 44.768 161.446 44.174C161.094 43.5727 160.918 42.8943 160.918 42.139C160.918 41.391 161.094 40.72 161.446 40.126C161.798 39.5247 162.274 39.0553 162.876 38.718C163.477 38.3807 164.137 38.212 164.856 38.212C165.582 38.212 166.242 38.3807 166.836 38.718C167.437 39.0553 167.91 39.5247 168.255 40.126C168.607 40.72 168.783 41.391 168.783 42.139C168.783 42.8943 168.607 43.5727 168.255 44.174C167.91 44.768 167.437 45.2337 166.836 45.571C166.234 45.9083 165.574 46.077 164.856 46.077ZM164.856 44.702C165.318 44.702 165.725 44.5993 166.077 44.394C166.429 44.1813 166.704 43.8807 166.902 43.492C167.1 43.1033 167.199 42.6523 167.199 42.139C167.199 41.6257 167.1 41.1783 166.902 40.797C166.704 40.4083 166.429 40.1113 166.077 39.906C165.725 39.7007 165.318 39.598 164.856 39.598C164.394 39.598 163.983 39.7007 163.624 39.906C163.272 40.1113 162.997 40.4083 162.799 40.797C162.601 41.1783 162.502 41.6257 162.502 42.139C162.502 42.6523 162.601 43.1033 162.799 43.492C162.997 43.8807 163.272 44.1813 163.624 44.394C163.983 44.5993 164.394 44.702 164.856 44.702ZM178.299 38.322V46H176.759V41.006L174.702 46H173.536L171.468 41.006V46H169.928V38.322H171.677L174.119 44.031L176.561 38.322H178.299ZM181.362 39.565V41.49H183.947V42.711H181.362V44.746H184.277V46H179.822V38.311H184.277V39.565H181.362Z" fill="black"/>
</g>
<defs>
<clipPath id="clip0_0_153">
<rect width="103" height="45" fill="white" transform="translate(82 5)"/>
</clipPath>
</defs>
</svg>
