<svg width="20" height="20" viewBox="0 0 20 20" fill="none" xmlns="http://www.w3.org/2000/svg">
<path fill-rule="evenodd" clip-rule="evenodd" d="M19.7549 18.6059L16.3169 15.2469L16.239 15.1259C16.087 14.9729 15.884 14.8909 15.669 14.8909C15.4579 14.8909 15.2509 14.9729 15.103 15.1259C12.181 17.8049 7.68095 17.9499 4.58295 15.4649C1.48495 12.9769 0.75495 8.63289 2.87595 5.30989C4.99695 1.98789 9.30995 0.719893 12.9539 2.34489C16.5989 3.96989 18.446 7.98389 17.267 11.7269C17.1849 12.0009 17.2509 12.2939 17.4499 12.5009C17.6459 12.7079 17.9429 12.7939 18.2239 12.7309C18.5049 12.6689 18.7319 12.4609 18.8179 12.1919C20.2239 7.75089 18.0989 2.96989 13.818 0.940893C9.53595 -1.08511 4.37995 0.250893 1.68895 4.08589C-1.00305 7.92189 -0.42505 13.1019 3.05195 16.2819C6.52395 19.4579 11.853 19.6759 15.587 16.7939L18.6299 19.7699C18.9429 20.0789 19.45 20.0789 19.767 19.7699C20.079 19.4609 20.079 18.9609 19.767 18.6489L19.7549 18.6059Z" fill="currentColor"/>
</svg>
