<svg width="15" height="15" viewBox="0 0 15 15" fill="none" xmlns="http://www.w3.org/2000/svg">
<path d="M7.5 5.625C7.99728 5.625 8.47419 5.82254 8.82583 6.17417C9.17746 6.52581 9.375 7.00272 9.375 7.5C9.375 7.99728 9.17746 8.47419 8.82583 8.82583C8.47419 9.17746 7.99728 9.375 7.5 9.375C7.00272 9.375 6.52581 9.17746 6.17417 8.82583C5.82254 8.47419 5.625 7.99728 5.625 7.5C5.625 7.00272 5.82254 6.52581 6.17417 6.17417C6.52581 5.82254 7.00272 5.625 7.5 5.625ZM7.5 2.8125C10.625 2.8125 13.2937 4.75625 14.375 7.5C13.2937 10.2437 10.625 12.1875 7.5 12.1875C4.375 12.1875 1.70625 10.2437 0.625 7.5C1.70625 4.75625 4.375 2.8125 7.5 2.8125ZM1.9875 7.5C2.49266 8.53144 3.27707 9.40047 4.25155 10.0083C5.22603 10.6161 6.3515 10.9383 7.5 10.9383C8.6485 10.9383 9.77397 10.6161 10.7485 10.0083C11.7229 9.40047 12.5073 8.53144 13.0125 7.5C12.5073 6.46856 11.7229 5.59953 10.7485 4.99172C9.77397 4.3839 8.6485 4.06168 7.5 4.06168C6.3515 4.06168 5.22603 4.3839 4.25155 4.99172C3.27707 5.59953 2.49266 6.46856 1.9875 7.5Z" fill="currentColor"/>
</svg>
