<svg width="21" height="19" viewBox="0 0 21 19" fill="none" xmlns="http://www.w3.org/2000/svg">
<path fill-rule="evenodd" clip-rule="evenodd" d="M11.6948 0.621402L13.9218 5.0944C14.0858 5.4184 14.3978 5.6454 14.7608 5.6994L19.7578 6.4264C20.0498 6.4694 20.3158 6.6214 20.4918 6.8554C20.6718 7.0904 20.7458 7.3834 20.7028 7.6724C20.6678 7.9104 20.5538 8.1334 20.3828 8.3014L16.7608 11.8094C16.4958 12.0594 16.3748 12.4184 16.4368 12.7734L17.3318 17.7114C17.4288 18.3014 17.0348 18.8594 16.4368 18.9804C16.1948 19.0194 15.9448 18.9804 15.7258 18.8674L11.2648 16.5434C10.9328 16.3754 10.5428 16.3754 10.2148 16.5434L5.75377 18.8674C5.20177 19.1604 4.51577 18.9574 4.21777 18.4184C4.10577 18.2034 4.06677 17.9574 4.10177 17.7194L4.99477 12.7814C5.05877 12.4304 4.93777 12.0664 4.67177 11.8164L1.04977 8.3124C0.839773 8.1054 0.717773 7.8244 0.717773 7.5314C0.717773 7.2384 0.839773 6.9574 1.04977 6.7504C1.22177 6.5784 1.44777 6.4654 1.69477 6.4344L6.69177 5.7074C7.05377 5.6524 7.36577 5.4304 7.52677 5.1024L9.67877 0.621402C9.86577 0.242402 10.2608 0.000401693 10.6948 0.00840169H10.8278C11.2028 0.0554017 11.5308 0.285402 11.6948 0.621402Z" fill="currentColor"/>
<path fill-rule="evenodd" clip-rule="evenodd" d="M10.7221 16.4105C10.5261 16.4105 10.3431 16.4765 10.1671 16.5625L5.72211 18.8795C5.18711 19.1485 4.51111 18.9335 4.21811 18.4185C4.10511 18.2075 4.06211 17.9655 4.10111 17.7265L4.99511 12.8015C5.05411 12.4415 4.93311 12.0825 4.67111 11.8285L1.04211 8.32052C0.605105 7.89152 0.605105 7.19152 1.04211 6.75852C1.21411 6.59052 1.43711 6.48052 1.67511 6.44552L6.69111 5.70752C7.07311 5.65252 7.35111 5.43852 7.52611 5.10252L9.70611 0.570517C9.8701 0.203517 10.4291 -0.0504835 10.7301 0.00851655C10.7221 0.309517 10.7221 16.2115 10.7221 16.4105Z" fill="currentColor"/>
</svg>
