<svg width="24" height="24" viewBox="0 0 24 24" fill="none" xmlns="http://www.w3.org/2000/svg">
<mask id="mask0_217_798" style="mask-type:luminance" maskUnits="userSpaceOnUse" x="0" y="0" width="24" height="24">
<path fill-rule="evenodd" clip-rule="evenodd" d="M0 0.000213623H23.9997V24H0V0.000213623Z" fill="white"/>
</mask>
<g mask="url(#mask0_217_798)">
<path fill-rule="evenodd" clip-rule="evenodd" d="M23.9998 12.0002C23.9998 18.6292 18.6288 24.0002 11.9998 24.0002C5.37176 24.0002 -0.000244141 18.6292 -0.000244141 12.0002C-0.000244141 5.37121 5.37176 0.000213623 11.9998 0.000213623C18.6288 0.000213623 23.9998 5.37121 23.9998 12.0002" fill="#50B748"/>
</g>
<path fill-rule="evenodd" clip-rule="evenodd" d="M14.5231 23.7189C14.7531 23.6719 14.9841 23.6209 15.2101 23.5619C15.5981 23.4569 15.9771 23.3279 16.3481 23.1839C16.7231 23.0389 17.0861 22.8749 17.4411 22.6949C17.8011 22.5119 18.1481 22.3119 18.4841 22.0979C18.8201 21.8829 19.1451 21.6479 19.4601 21.3979C19.7731 21.1519 20.0741 20.8869 20.3591 20.6049C20.6481 20.3279 20.9211 20.0349 21.1801 19.7299C21.4381 19.4259 21.6801 19.1049 21.9021 18.7729C22.1281 18.4449 22.3391 18.1049 22.5311 17.7539C22.7231 17.4019 22.8981 17.0429 23.0551 16.6759C23.2111 16.3049 23.3481 15.9299 23.4641 15.5469C23.5661 15.2109 23.6521 14.8749 23.7271 14.5309L16.5941 7.4019C15.3781 6.1799 13.7271 5.4959 12.0031 5.4959C10.2771 5.4919 8.62109 6.1799 7.40209 7.4019C6.18409 8.6209 5.49609 10.2729 5.49609 11.9999C5.49609 13.7229 6.18409 15.3789 7.40209 16.5979L14.5231 23.7149V23.7189Z" fill="#10A711"/>
<rect x="5" y="5" width="13.1" height="13.1" rx="6.55" fill="white"/>
<path d="M8 11.6L10.625 14L15 10" stroke="#10A711" stroke-linecap="round" stroke-linejoin="round"/>
</svg>
